<svg width="310" height="86" viewBox="0 0 310 86" fill="none" xmlns="http://www.w3.org/2000/svg">
<rect x="0.216797" width="85.499" height="85.499" rx="20" fill="white"/>
<path d="M54.0079 29.4439C50.3206 30.5785 49.0641 30.9549 48.5498 37.3036C48.4874 38.1104 48.4091 39.3101 48.2899 40.0275C47.5857 44.4536 47.4776 44.9166 47.1255 45.9951C46.9314 46.5953 45.9375 49.5167 45.9264 49.5409C44.2768 53.7432 42.1767 55.6055 40.8113 57.3522C40.6713 57.5337 40.88 57.7722 41.072 57.6557C43.5221 56.1448 44.911 55.4843 49.5811 52.0326C53.6011 49.0592 55.234 44.0939 55.4835 39.7974C55.7323 35.4496 56.1087 33.904 56.1087 33.904C56.0463 29.6394 64.9346 24.29 64.9346 24.29C58.5664 27.6904 57.6952 28.31 54.0072 29.4446L54.0079 29.4439Z" fill="#12542C"/>
<path d="M42.8963 48.1497C42.1027 48.6154 40.7006 49.793 38.2914 52.6825C33.6151 58.2918 22.8838 62.9702 22.8838 62.9702C41.6079 58.0755 43.7488 51.1958 43.8923 48.7832C43.92 48.2391 43.3565 47.8759 42.8963 48.1497ZM43.9983 42.9861C43.9983 42.9861 41.1289 42.512 37.0487 44.4721C32.9712 46.4329 32.4271 47.984 29.1889 48.106C29.1889 48.106 35.3506 50.3503 39.8211 47.9161C44.2915 45.4799 43.9983 42.9861 43.9983 42.9861ZM33.3281 60.8417C31.5087 61.2721 26.4186 63.2377 22.8831 71.9583C22.8831 71.9583 26.2239 67.4774 30.4532 64.4319C32.4673 62.9806 33.369 62.0712 33.7641 61.514C33.9893 61.1938 33.7045 60.7523 33.3281 60.8417ZM39.1952 57.7366C37.4652 58.2536 32.608 60.7259 33.4931 71.961C33.4931 71.961 34.4814 65.1195 37.5463 61.5403C38.9408 59.9129 39.5306 58.9523 39.7608 58.3867C39.9153 58.0097 39.5771 57.6174 39.1952 57.7366ZM38.1341 37.6416C43.1701 38.6653 46.3292 38.0533 46.3292 38.0533C46.3292 38.0533 44.7511 34.0195 39.9292 30.4778C35.1073 26.9361 33.2928 27.0012 28.4168 22.4961C23.5381 18.0013 22.8831 13.5371 22.8831 13.5371C22.8831 13.5371 23.8306 24.2177 26.9821 28.8934C30.1288 33.5607 33.098 36.6228 38.1341 37.6403V37.6416ZM27.6828 41.1023C30.9938 43.0055 33.8202 43.9828 37.7029 43.1275C41.5857 42.2715 43.7433 40.9803 43.7433 40.9803C43.7433 40.9803 39.5764 38.2945 35.2986 37.5723C31.0236 36.8494 32.0847 37.3616 27.328 36.8335C22.7119 36.3192 21 34.6183 21 34.6183C20.9979 34.6183 24.3712 39.2073 27.6828 41.1023Z" fill="#12542C"/>
<path d="M118.253 49.6775C116.372 49.6775 114.638 49.3829 113.051 48.7935C111.487 48.1815 110.116 47.3202 108.937 46.2095C107.781 45.0989 106.875 43.7955 106.217 42.2995C105.583 40.8035 105.265 39.1602 105.265 37.3695C105.265 35.5789 105.583 33.9355 106.217 32.4395C106.875 30.9435 107.793 29.6402 108.971 28.5295C110.15 27.4189 111.533 26.5689 113.119 25.9795C114.706 25.3675 116.451 25.0615 118.355 25.0615C120.463 25.0615 122.356 25.4129 124.033 26.1155C125.733 26.8182 127.161 27.8382 128.317 29.1755L124.781 32.4395C123.92 31.5329 122.979 30.8642 121.959 30.4335C120.939 29.9802 119.829 29.7535 118.627 29.7535C117.471 29.7535 116.417 29.9349 115.465 30.2975C114.513 30.6602 113.686 31.1815 112.983 31.8615C112.303 32.5415 111.771 33.3462 111.385 34.2755C111.023 35.2049 110.841 36.2362 110.841 37.3695C110.841 38.4802 111.023 39.5002 111.385 40.4295C111.771 41.3589 112.303 42.1749 112.983 42.8775C113.686 43.5575 114.502 44.0789 115.431 44.4415C116.383 44.8042 117.426 44.9855 118.559 44.9855C119.647 44.9855 120.701 44.8155 121.721 44.4755C122.764 44.1129 123.773 43.5122 124.747 42.6735L127.875 46.6515C126.583 47.6262 125.076 48.3742 123.353 48.8955C121.653 49.4169 119.953 49.6775 118.253 49.6775ZM122.843 45.9375V36.9955H127.875V46.6515L122.843 45.9375ZM141.696 49.5415C139.611 49.5415 137.775 49.1335 136.188 48.3175C134.624 47.5015 133.411 46.3909 132.55 44.9855C131.689 43.5575 131.258 41.9369 131.258 40.1235C131.258 38.2875 131.677 36.6669 132.516 35.2615C133.377 33.8335 134.545 32.7229 136.018 31.9295C137.491 31.1135 139.157 30.7055 141.016 30.7055C142.807 30.7055 144.416 31.0909 145.844 31.8615C147.295 32.6095 148.439 33.6975 149.278 35.1255C150.117 36.5309 150.536 38.2195 150.536 40.1915C150.536 40.3955 150.525 40.6335 150.502 40.9055C150.479 41.1549 150.457 41.3929 150.434 41.6195H135.576V38.5255H147.646L145.606 39.4435C145.606 38.4915 145.413 37.6642 145.028 36.9615C144.643 36.2589 144.11 35.7149 143.43 35.3295C142.75 34.9215 141.957 34.7175 141.05 34.7175C140.143 34.7175 139.339 34.9215 138.636 35.3295C137.956 35.7149 137.423 36.2702 137.038 36.9955C136.653 37.6982 136.46 38.5369 136.46 39.5115V40.3275C136.46 41.3249 136.675 42.2089 137.106 42.9795C137.559 43.7275 138.183 44.3055 138.976 44.7135C139.792 45.0989 140.744 45.2915 141.832 45.2915C142.807 45.2915 143.657 45.1442 144.382 44.8495C145.13 44.5549 145.81 44.1129 146.422 43.5235L149.244 46.5835C148.405 47.5355 147.351 48.2722 146.082 48.7935C144.813 49.2922 143.351 49.5415 141.696 49.5415ZM177.493 30.7055C178.944 30.7055 180.224 31.0002 181.335 31.5895C182.468 32.1562 183.352 33.0402 183.987 34.2415C184.644 35.4202 184.973 36.9389 184.973 38.7975V49.2695H179.669V39.6135C179.669 38.1402 179.363 37.0522 178.751 36.3495C178.139 35.6469 177.278 35.2955 176.167 35.2955C175.396 35.2955 174.705 35.4769 174.093 35.8395C173.481 36.1795 173.005 36.7009 172.665 37.4035C172.325 38.1062 172.155 39.0015 172.155 40.0895V49.2695H166.851V39.6135C166.851 38.1402 166.545 37.0522 165.933 36.3495C165.344 35.6469 164.494 35.2955 163.383 35.2955C162.612 35.2955 161.921 35.4769 161.309 35.8395C160.697 36.1795 160.221 36.7009 159.881 37.4035C159.541 38.1062 159.371 39.0015 159.371 40.0895V49.2695H154.067V30.9775H159.133V35.9755L158.181 34.5135C158.816 33.2669 159.711 32.3262 160.867 31.6915C162.046 31.0342 163.383 30.7055 164.879 30.7055C166.556 30.7055 168.018 31.1362 169.265 31.9975C170.534 32.8362 171.373 34.1282 171.781 35.8735L169.911 35.3635C170.523 33.9355 171.498 32.8022 172.835 31.9635C174.195 31.1249 175.748 30.7055 177.493 30.7055ZM213.153 30.7055C214.604 30.7055 215.885 31.0002 216.995 31.5895C218.129 32.1562 219.013 33.0402 219.647 34.2415C220.305 35.4202 220.633 36.9389 220.633 38.7975V49.2695H215.329V39.6135C215.329 38.1402 215.023 37.0522 214.411 36.3495C213.799 35.6469 212.938 35.2955 211.827 35.2955C211.057 35.2955 210.365 35.4769 209.753 35.8395C209.141 36.1795 208.665 36.7009 208.325 37.4035C207.985 38.1062 207.815 39.0015 207.815 40.0895V49.2695H202.511V39.6135C202.511 38.1402 202.205 37.0522 201.593 36.3495C201.004 35.6469 200.154 35.2955 199.043 35.2955C198.273 35.2955 197.581 35.4769 196.969 35.8395C196.357 36.1795 195.881 36.7009 195.541 37.4035C195.201 38.1062 195.031 39.0015 195.031 40.0895V49.2695H189.727V30.9775H194.793V35.9755L193.841 34.5135C194.476 33.2669 195.371 32.3262 196.527 31.6915C197.706 31.0342 199.043 30.7055 200.539 30.7055C202.217 30.7055 203.679 31.1362 204.925 31.9975C206.195 32.8362 207.033 34.1282 207.441 35.8735L205.571 35.3635C206.183 33.9355 207.158 32.8022 208.495 31.9635C209.855 31.1249 211.408 30.7055 213.153 30.7055ZM236.607 49.2695V45.6995L236.267 44.9175V38.5255C236.267 37.3922 235.916 36.5082 235.213 35.8735C234.533 35.2389 233.479 34.9215 232.051 34.9215C231.077 34.9215 230.113 35.0802 229.161 35.3975C228.232 35.6922 227.439 36.1002 226.781 36.6215L224.877 32.9155C225.875 32.2129 227.076 31.6689 228.481 31.2835C229.887 30.8982 231.315 30.7055 232.765 30.7055C235.553 30.7055 237.718 31.3629 239.259 32.6775C240.801 33.9922 241.571 36.0435 241.571 38.8315V49.2695H236.607ZM231.031 49.5415C229.603 49.5415 228.379 49.3035 227.359 48.8275C226.339 48.3289 225.557 47.6602 225.013 46.8215C224.469 45.9829 224.197 45.0422 224.197 43.9995C224.197 42.9115 224.458 41.9595 224.979 41.1435C225.523 40.3275 226.373 39.6929 227.529 39.2395C228.685 38.7635 230.193 38.5255 232.051 38.5255H236.913V41.6195H232.629C231.383 41.6195 230.521 41.8235 230.045 42.2315C229.592 42.6395 229.365 43.1495 229.365 43.7615C229.365 44.4415 229.626 44.9855 230.147 45.3935C230.691 45.7789 231.428 45.9715 232.357 45.9715C233.241 45.9715 234.035 45.7675 234.737 45.3595C235.44 44.9289 235.95 44.3055 236.267 43.4895L237.083 45.9375C236.698 47.1162 235.995 48.0115 234.975 48.6235C233.955 49.2355 232.641 49.5415 231.031 49.5415ZM258.551 49.2695V27.5095L260.931 29.8895H253.791V25.4695H264.059V49.2695H258.551ZM272.001 49.2695L281.589 27.5775L283.017 29.9575H270.199L272.647 27.3735V33.8335H267.751V25.4695H286.825V29.0395L277.985 49.2695H272.001ZM286.781 44.2715V40.5655L298.001 25.4695H303.781L292.799 40.5655L290.113 39.7835H308.847V44.2715H286.781ZM299.599 49.2695V44.2715L299.769 39.7835V35.3295H304.971V49.2695H299.599Z" fill="white"/>
<path d="M110.935 65.8095V58.5975H106.915L106.843 60.6375C106.819 61.2695 106.779 61.8775 106.723 62.4615C106.675 63.0375 106.595 63.5575 106.483 64.0215C106.379 64.4775 106.235 64.8495 106.051 65.1375C105.875 65.4255 105.643 65.5935 105.355 65.6415L104.383 65.4615C104.703 65.4775 104.967 65.3615 105.175 65.1135C105.391 64.8655 105.555 64.5175 105.667 64.0695C105.787 63.6215 105.875 63.0975 105.931 62.4975C105.987 61.8975 106.027 61.2495 106.051 60.5535L106.147 57.8295H111.811V65.8095H110.935ZM104.071 68.1135L104.083 65.4615H113.071V68.1135H112.243V66.2295H104.911L104.899 68.1135H104.071ZM114.679 66.2295V59.9295H115.531V64.9335L119.743 59.9295H120.499V66.2295H119.647V61.2135L115.447 66.2295H114.679ZM124.504 66.3015C124.048 66.3015 123.596 66.2375 123.148 66.1095C122.7 65.9815 122.304 65.7855 121.96 65.5215L122.236 64.8855C122.54 65.1095 122.892 65.2815 123.292 65.4015C123.692 65.5135 124.088 65.5695 124.48 65.5695C124.872 65.5615 125.212 65.5055 125.5 65.4015C125.788 65.2975 126.012 65.1535 126.172 64.9695C126.332 64.7855 126.412 64.5775 126.412 64.3455C126.412 64.0095 126.26 63.7495 125.956 63.5655C125.652 63.3735 125.236 63.2775 124.708 63.2775H123.628V62.6535H124.648C124.96 62.6535 125.236 62.6135 125.476 62.5335C125.716 62.4535 125.9 62.3375 126.028 62.1855C126.164 62.0335 126.232 61.8535 126.232 61.6455C126.232 61.4215 126.152 61.2295 125.992 61.0695C125.84 60.9095 125.628 60.7895 125.356 60.7095C125.084 60.6295 124.776 60.5895 124.432 60.5895C124.12 60.5975 123.796 60.6455 123.46 60.7335C123.124 60.8135 122.792 60.9375 122.464 61.1055L122.224 60.4455C122.592 60.2535 122.956 60.1095 123.316 60.0135C123.684 59.9095 124.052 59.8575 124.42 59.8575C124.924 59.8415 125.376 59.9015 125.776 60.0375C126.184 60.1735 126.508 60.3695 126.748 60.6255C126.988 60.8735 127.108 61.1735 127.108 61.5255C127.108 61.8375 127.012 62.1095 126.82 62.3415C126.628 62.5735 126.372 62.7535 126.052 62.8815C125.732 63.0095 125.368 63.0735 124.96 63.0735L124.996 62.8455C125.716 62.8455 126.276 62.9855 126.676 63.2655C127.084 63.5455 127.288 63.9255 127.288 64.4055C127.288 64.7815 127.164 65.1135 126.916 65.4015C126.668 65.6815 126.332 65.9015 125.908 66.0615C125.492 66.2215 125.024 66.3015 124.504 66.3015ZM133.134 66.2295V64.8375L133.098 64.6095V62.2815C133.098 61.7455 132.946 61.3335 132.642 61.0455C132.346 60.7575 131.902 60.6135 131.31 60.6135C130.902 60.6135 130.514 60.6815 130.146 60.8175C129.778 60.9535 129.466 61.1335 129.21 61.3575L128.826 60.7215C129.146 60.4495 129.53 60.2415 129.978 60.0975C130.426 59.9455 130.898 59.8695 131.394 59.8695C132.21 59.8695 132.838 60.0735 133.278 60.4815C133.726 60.8815 133.95 61.4935 133.95 62.3175V66.2295H133.134ZM130.962 66.2895C130.49 66.2895 130.078 66.2135 129.726 66.0615C129.382 65.9015 129.118 65.6855 128.934 65.4135C128.75 65.1335 128.658 64.8135 128.658 64.4535C128.658 64.1255 128.734 63.8295 128.886 63.5655C129.046 63.2935 129.302 63.0775 129.654 62.9175C130.014 62.7495 130.494 62.6655 131.094 62.6655H133.266V63.3015H131.118C130.51 63.3015 130.086 63.4095 129.846 63.6255C129.614 63.8415 129.498 64.1095 129.498 64.4295C129.498 64.7895 129.638 65.0775 129.918 65.2935C130.198 65.5095 130.59 65.6175 131.094 65.6175C131.574 65.6175 131.986 65.5095 132.33 65.2935C132.682 65.0695 132.938 64.7495 133.098 64.3335L133.29 64.9215C133.13 65.3375 132.85 65.6695 132.45 65.9175C132.058 66.1655 131.562 66.2895 130.962 66.2895ZM136.218 66.2295V59.9295H137.07V64.9335L141.282 59.9295H142.038V66.2295H141.186V61.2135L136.986 66.2295H136.218ZM139.074 59.0175C138.546 59.0175 138.118 58.8855 137.79 58.6215C137.47 58.3495 137.302 57.9615 137.286 57.4575H137.898C137.906 57.7775 138.018 58.0295 138.234 58.2135C138.45 58.3975 138.73 58.4895 139.074 58.4895C139.418 58.4895 139.698 58.3975 139.914 58.2135C140.138 58.0295 140.254 57.7775 140.262 57.4575H140.874C140.866 57.9615 140.698 58.3495 140.37 58.6215C140.042 58.8855 139.61 59.0175 139.074 59.0175ZM144.48 66.2295V59.9295H145.332V62.7135H149.304V59.9295H150.156V66.2295H149.304V63.4455H145.332V66.2295H144.48ZM152.085 63.3495V62.6055H155.229V63.3495H152.085ZM159.916 66.2895C159.292 66.2895 158.732 66.1535 158.236 65.8815C157.748 65.6015 157.364 65.2215 157.084 64.7415C156.804 64.2535 156.664 63.6975 156.664 63.0735C156.664 62.4415 156.804 61.8855 157.084 61.4055C157.364 60.9255 157.748 60.5495 158.236 60.2775C158.732 60.0055 159.292 59.8695 159.916 59.8695C160.452 59.8695 160.936 59.9735 161.368 60.1815C161.8 60.3895 162.14 60.7015 162.388 61.1175L161.752 61.5495C161.536 61.2295 161.268 60.9935 160.948 60.8415C160.628 60.6895 160.28 60.6135 159.904 60.6135C159.456 60.6135 159.052 60.7175 158.692 60.9255C158.332 61.1255 158.048 61.4095 157.84 61.7775C157.632 62.1455 157.528 62.5775 157.528 63.0735C157.528 63.5695 157.632 64.0015 157.84 64.3695C158.048 64.7375 158.332 65.0255 158.692 65.2335C159.052 65.4335 159.456 65.5335 159.904 65.5335C160.28 65.5335 160.628 65.4575 160.948 65.3055C161.268 65.1535 161.536 64.9215 161.752 64.6095L162.388 65.0415C162.14 65.4495 161.8 65.7615 161.368 65.9775C160.936 66.1855 160.452 66.2895 159.916 66.2895ZM165.121 66.2295V60.4455L165.337 60.6735H162.733V59.9295H168.361V60.6735H165.757L165.973 60.4455V66.2295H165.121ZM169.701 68.6175C169.405 68.6175 169.121 68.5695 168.849 68.4735C168.585 68.3775 168.357 68.2335 168.165 68.0415L168.561 67.4055C168.721 67.5575 168.893 67.6735 169.077 67.7535C169.269 67.8415 169.481 67.8855 169.713 67.8855C169.993 67.8855 170.233 67.8055 170.433 67.6455C170.641 67.4935 170.837 67.2215 171.021 66.8295L171.429 65.9055L171.525 65.7735L174.117 59.9295H174.957L171.801 66.9855C171.625 67.3935 171.429 67.7175 171.213 67.9575C171.005 68.1975 170.777 68.3655 170.529 68.4615C170.281 68.5655 170.005 68.6175 169.701 68.6175ZM171.381 66.4095L168.477 59.9295H169.365L171.933 65.7135L171.381 66.4095ZM180.335 65.8215V60.6735H177.299L177.227 62.0775C177.211 62.5015 177.183 62.9175 177.143 63.3255C177.111 63.7335 177.051 64.1095 176.963 64.4535C176.883 64.7895 176.767 65.0655 176.615 65.2815C176.463 65.4895 176.267 65.6095 176.027 65.6415L175.175 65.4855C175.423 65.4935 175.627 65.4055 175.787 65.2215C175.947 65.0295 176.071 64.7695 176.159 64.4415C176.247 64.1135 176.311 63.7415 176.351 63.3255C176.391 62.9015 176.423 62.4695 176.447 62.0295L176.531 59.9295H181.187V65.8215H180.335ZM174.911 67.7535V65.4855H182.171V67.7535H181.367V66.2295H175.715V67.7535H174.911ZM183.831 66.2295V59.9295H184.683V64.9335L188.895 59.9295H189.651V66.2295H188.799V61.2135L184.599 66.2295H183.831ZM196.161 66.2295V63.9615L196.317 64.1415H194.181C193.373 64.1415 192.741 63.9655 192.285 63.6135C191.829 63.2615 191.601 62.7495 191.601 62.0775C191.601 61.3575 191.845 60.8215 192.333 60.4695C192.821 60.1095 193.473 59.9295 194.289 59.9295H196.941V66.2295H196.161ZM191.553 66.2295L193.281 63.8055H194.169L192.477 66.2295H191.553ZM196.161 63.7095V60.4215L196.317 60.6735H194.313C193.729 60.6735 193.273 60.7855 192.945 61.0095C192.625 61.2335 192.465 61.5975 192.465 62.1015C192.465 63.0375 193.061 63.5055 194.253 63.5055H196.317L196.161 63.7095ZM202.511 66.2295V59.9295H203.375L206.231 64.7655H205.871L208.775 59.9295H209.567V66.2295H208.787V60.9015L208.943 60.9735L206.231 65.4615H205.847L203.111 60.9255L203.291 60.8895V66.2295H202.511ZM214.691 66.2895C214.035 66.2895 213.459 66.1535 212.963 65.8815C212.467 65.6015 212.079 65.2215 211.799 64.7415C211.519 64.2535 211.379 63.6975 211.379 63.0735C211.379 62.4495 211.511 61.8975 211.775 61.4175C212.047 60.9375 212.415 60.5615 212.879 60.2895C213.351 60.0095 213.879 59.8695 214.463 59.8695C215.055 59.8695 215.579 60.0055 216.035 60.2775C216.499 60.5415 216.863 60.9175 217.127 61.4055C217.391 61.8855 217.523 62.4415 217.523 63.0735C217.523 63.1135 217.519 63.1575 217.511 63.2055C217.511 63.2455 217.511 63.2895 217.511 63.3375H212.027V62.7015H217.055L216.719 62.9535C216.719 62.4975 216.619 62.0935 216.419 61.7415C216.227 61.3815 215.963 61.1015 215.627 60.9015C215.291 60.7015 214.903 60.6015 214.463 60.6015C214.031 60.6015 213.643 60.7015 213.299 60.9015C212.955 61.1015 212.687 61.3815 212.495 61.7415C212.303 62.1015 212.207 62.5135 212.207 62.9775V63.1095C212.207 63.5895 212.311 64.0135 212.519 64.3815C212.735 64.7415 213.031 65.0255 213.407 65.2335C213.791 65.4335 214.227 65.5335 214.715 65.5335C215.099 65.5335 215.455 65.4655 215.783 65.3295C216.119 65.1935 216.407 64.9855 216.647 64.7055L217.127 65.2575C216.847 65.5935 216.495 65.8495 216.071 66.0255C215.655 66.2015 215.195 66.2895 214.691 66.2895ZM222.241 66.3015C221.729 66.3015 221.273 66.2175 220.873 66.0495C220.481 65.8815 220.145 65.6255 219.865 65.2815C219.585 64.9375 219.373 64.5135 219.229 64.0095C219.085 63.4975 219.013 62.9055 219.013 62.2335C219.013 61.6335 219.069 61.1095 219.181 60.6615C219.293 60.2055 219.449 59.8135 219.649 59.4855C219.849 59.1575 220.081 58.8815 220.345 58.6575C220.617 58.4255 220.909 58.2415 221.221 58.1055C221.541 57.9615 221.869 57.8535 222.205 57.7815L225.037 57.1215L225.181 57.9135L222.517 58.5135C222.349 58.5535 222.145 58.6095 221.905 58.6815C221.673 58.7535 221.433 58.8615 221.185 59.0055C220.945 59.1495 220.721 59.3495 220.513 59.6055C220.305 59.8615 220.137 60.1935 220.009 60.6015C219.889 61.0015 219.829 61.5015 219.829 62.1015C219.829 62.2295 219.833 62.3335 219.841 62.4135C219.849 62.4855 219.857 62.5655 219.865 62.6535C219.881 62.7335 219.893 62.8535 219.901 63.0135L219.529 62.7015C219.617 62.2135 219.797 61.7895 220.069 61.4295C220.341 61.0615 220.681 60.7775 221.089 60.5775C221.505 60.3695 221.965 60.2655 222.469 60.2655C223.053 60.2655 223.573 60.3935 224.029 60.6495C224.485 60.8975 224.841 61.2455 225.097 61.6935C225.361 62.1415 225.493 62.6615 225.493 63.2535C225.493 63.8375 225.357 64.3615 225.085 64.8255C224.821 65.2895 224.445 65.6535 223.957 65.9175C223.469 66.1735 222.897 66.3015 222.241 66.3015ZM222.337 65.5935C222.785 65.5935 223.181 65.4935 223.525 65.2935C223.869 65.0855 224.137 64.8055 224.329 64.4535C224.529 64.1015 224.629 63.7055 224.629 63.2655C224.629 62.8335 224.529 62.4495 224.329 62.1135C224.137 61.7775 223.869 61.5135 223.525 61.3215C223.181 61.1215 222.781 61.0215 222.325 61.0215C221.877 61.0215 221.481 61.1175 221.137 61.3095C220.793 61.4935 220.521 61.7535 220.321 62.0895C220.129 62.4255 220.033 62.8135 220.033 63.2535C220.033 63.6935 220.129 64.0895 220.321 64.4415C220.521 64.7935 220.793 65.0735 221.137 65.2815C221.489 65.4895 221.889 65.5935 222.337 65.5935ZM230.019 66.2895C229.363 66.2895 228.787 66.1535 228.291 65.8815C227.795 65.6015 227.407 65.2215 227.127 64.7415C226.847 64.2535 226.707 63.6975 226.707 63.0735C226.707 62.4495 226.839 61.8975 227.103 61.4175C227.375 60.9375 227.743 60.5615 228.207 60.2895C228.679 60.0095 229.207 59.8695 229.791 59.8695C230.383 59.8695 230.907 60.0055 231.363 60.2775C231.827 60.5415 232.191 60.9175 232.455 61.4055C232.719 61.8855 232.851 62.4415 232.851 63.0735C232.851 63.1135 232.847 63.1575 232.839 63.2055C232.839 63.2455 232.839 63.2895 232.839 63.3375H227.355V62.7015H232.383L232.047 62.9535C232.047 62.4975 231.947 62.0935 231.747 61.7415C231.555 61.3815 231.291 61.1015 230.955 60.9015C230.619 60.7015 230.231 60.6015 229.791 60.6015C229.359 60.6015 228.971 60.7015 228.627 60.9015C228.283 61.1015 228.015 61.3815 227.823 61.7415C227.631 62.1015 227.535 62.5135 227.535 62.9775V63.1095C227.535 63.5895 227.639 64.0135 227.847 64.3815C228.063 64.7415 228.359 65.0255 228.735 65.2335C229.119 65.4335 229.555 65.5335 230.043 65.5335C230.427 65.5335 230.783 65.4655 231.111 65.3295C231.447 65.1935 231.735 64.9855 231.975 64.7055L232.455 65.2575C232.175 65.5935 231.823 65.8495 231.399 66.0255C230.983 66.2015 230.523 66.2895 230.019 66.2895ZM233.456 66.2175L233.516 65.4855C233.572 65.4935 233.624 65.5055 233.672 65.5215C233.728 65.5295 233.776 65.5335 233.816 65.5335C234.072 65.5335 234.276 65.4375 234.428 65.2455C234.588 65.0535 234.708 64.7975 234.788 64.4775C234.868 64.1575 234.924 63.7975 234.956 63.3975C234.988 62.9895 235.016 62.5815 235.04 62.1735L235.148 59.9295H239.768V66.2295H238.916V60.4215L239.132 60.6735H235.7L235.904 60.4095L235.808 62.2335C235.784 62.7775 235.74 63.2975 235.676 63.7935C235.62 64.2895 235.528 64.7255 235.4 65.1015C235.28 65.4775 235.112 65.7735 234.896 65.9895C234.68 66.1975 234.404 66.3015 234.068 66.3015C233.972 66.3015 233.872 66.2935 233.768 66.2775C233.672 66.2615 233.568 66.2415 233.456 66.2175ZM242.191 66.2295V59.9295H243.043V64.9335L247.255 59.9295H248.011V66.2295H247.159V61.2135L242.959 66.2295H242.191Z" fill="white"/>
<line x1="253.785" y1="62.543" x2="308.785" y2="62.543" stroke="white"/>
</svg>
